<mxfile host="app.diagrams.net" agent="Mozilla/5.0 (Windows NT 10.0; Win64; x64) AppleWebKit/537.36 (KHTML, like Gecko) Chrome/114.0.0.0 Safari/537.36" version="24.8.3">
  <diagram name="第 1 页" id="3zqC2wM9n35SYir4Effy">
    <mxGraphModel dx="1366" dy="764" grid="1" gridSize="10" guides="1" tooltips="1" connect="1" arrows="1" fold="1" page="1" pageScale="1" pageWidth="827" pageHeight="1169" math="0" shadow="0">
      <root>
        <mxCell id="0" />
        <mxCell id="1" parent="0" />
        <mxCell id="Wq2FVP6Fe32ZllZ8_PYj-3" value="中奖记录" style="swimlane;whiteSpace=wrap;html=1;" vertex="1" parent="1">
          <mxGeometry x="210" y="80" width="370" height="350" as="geometry" />
        </mxCell>
        <mxCell id="Wq2FVP6Fe32ZllZ8_PYj-17" value="b1" style="rounded=1;whiteSpace=wrap;html=1;fillColor=#ffe6cc;strokeColor=#d79b00;" vertex="1" parent="Wq2FVP6Fe32ZllZ8_PYj-3">
          <mxGeometry y="30" width="370" height="60" as="geometry" />
        </mxCell>
        <mxCell id="Wq2FVP6Fe32ZllZ8_PYj-18" value="c3" style="rounded=1;whiteSpace=wrap;html=1;fillColor=#dae8fc;strokeColor=#6c8ebf;" vertex="1" parent="Wq2FVP6Fe32ZllZ8_PYj-3">
          <mxGeometry y="90" width="370" height="60" as="geometry" />
        </mxCell>
        <mxCell id="Wq2FVP6Fe32ZllZ8_PYj-19" value="c1" style="rounded=1;whiteSpace=wrap;html=1;fillColor=#dae8fc;strokeColor=#6c8ebf;" vertex="1" parent="Wq2FVP6Fe32ZllZ8_PYj-3">
          <mxGeometry y="150" width="370" height="60" as="geometry" />
        </mxCell>
        <mxCell id="Wq2FVP6Fe32ZllZ8_PYj-20" value="c1" style="rounded=1;whiteSpace=wrap;html=1;fillColor=#dae8fc;strokeColor=#6c8ebf;" vertex="1" parent="Wq2FVP6Fe32ZllZ8_PYj-3">
          <mxGeometry y="210" width="370" height="60" as="geometry" />
        </mxCell>
        <mxCell id="Wq2FVP6Fe32ZllZ8_PYj-21" value="a2" style="rounded=1;whiteSpace=wrap;html=1;fillColor=#f8cecc;strokeColor=#b85450;" vertex="1" parent="Wq2FVP6Fe32ZllZ8_PYj-3">
          <mxGeometry y="270" width="370" height="70" as="geometry" />
        </mxCell>
        <mxCell id="Wq2FVP6Fe32ZllZ8_PYj-5" value="点击奖励按钮在中奖记录中添加一项" style="swimlane;whiteSpace=wrap;html=1;" vertex="1" parent="1">
          <mxGeometry x="50" y="440" width="710" height="310" as="geometry" />
        </mxCell>
        <mxCell id="Wq2FVP6Fe32ZllZ8_PYj-7" value="a1" style="shape=process;whiteSpace=wrap;html=1;backgroundOutline=1;fillColor=#f8cecc;strokeColor=#b85450;" vertex="1" parent="Wq2FVP6Fe32ZllZ8_PYj-5">
          <mxGeometry x="40" y="50" width="120" height="60" as="geometry" />
        </mxCell>
        <mxCell id="Wq2FVP6Fe32ZllZ8_PYj-9" value="a3" style="shape=process;whiteSpace=wrap;html=1;backgroundOutline=1;fillColor=#f8cecc;strokeColor=#b85450;" vertex="1" parent="Wq2FVP6Fe32ZllZ8_PYj-5">
          <mxGeometry x="500" y="50" width="120" height="60" as="geometry" />
        </mxCell>
        <mxCell id="Wq2FVP6Fe32ZllZ8_PYj-8" value="a2" style="shape=process;whiteSpace=wrap;html=1;backgroundOutline=1;fillColor=#f8cecc;strokeColor=#b85450;" vertex="1" parent="Wq2FVP6Fe32ZllZ8_PYj-5">
          <mxGeometry x="280" y="50" width="120" height="60" as="geometry" />
        </mxCell>
        <mxCell id="Wq2FVP6Fe32ZllZ8_PYj-10" value="b1" style="shape=process;whiteSpace=wrap;html=1;backgroundOutline=1;fillColor=#ffe6cc;strokeColor=#d79b00;" vertex="1" parent="Wq2FVP6Fe32ZllZ8_PYj-5">
          <mxGeometry x="40" y="130" width="120" height="60" as="geometry" />
        </mxCell>
        <mxCell id="Wq2FVP6Fe32ZllZ8_PYj-11" value="b2" style="shape=process;whiteSpace=wrap;html=1;backgroundOutline=1;fillColor=#ffe6cc;strokeColor=#d79b00;" vertex="1" parent="Wq2FVP6Fe32ZllZ8_PYj-5">
          <mxGeometry x="280" y="130" width="120" height="60" as="geometry" />
        </mxCell>
        <mxCell id="Wq2FVP6Fe32ZllZ8_PYj-12" value="b3" style="shape=process;whiteSpace=wrap;html=1;backgroundOutline=1;fillColor=#ffe6cc;strokeColor=#d79b00;" vertex="1" parent="Wq2FVP6Fe32ZllZ8_PYj-5">
          <mxGeometry x="500" y="130" width="120" height="60" as="geometry" />
        </mxCell>
        <mxCell id="Wq2FVP6Fe32ZllZ8_PYj-13" value="c1" style="shape=process;whiteSpace=wrap;html=1;backgroundOutline=1;fillColor=#dae8fc;strokeColor=#6c8ebf;" vertex="1" parent="Wq2FVP6Fe32ZllZ8_PYj-5">
          <mxGeometry x="40" y="210" width="120" height="60" as="geometry" />
        </mxCell>
        <mxCell id="Wq2FVP6Fe32ZllZ8_PYj-14" value="c2" style="shape=process;whiteSpace=wrap;html=1;backgroundOutline=1;fillColor=#dae8fc;strokeColor=#6c8ebf;" vertex="1" parent="Wq2FVP6Fe32ZllZ8_PYj-5">
          <mxGeometry x="280" y="210" width="120" height="60" as="geometry" />
        </mxCell>
        <mxCell id="Wq2FVP6Fe32ZllZ8_PYj-15" value="c3" style="shape=process;whiteSpace=wrap;html=1;backgroundOutline=1;fillColor=#dae8fc;strokeColor=#6c8ebf;" vertex="1" parent="Wq2FVP6Fe32ZllZ8_PYj-5">
          <mxGeometry x="500" y="210" width="120" height="60" as="geometry" />
        </mxCell>
      </root>
    </mxGraphModel>
  </diagram>
</mxfile>
